<svg width="132" height="14" viewBox="0 0 132 14" fill="none" xmlns="http://www.w3.org/2000/svg">
<path d="M6.32 14V8.46L6.9 10.06L0.82 -9.53674e-07H3.6L8.48 8.1H6.92L11.84 -9.53674e-07H14.4L8.32 10.06L8.92 8.46V14H6.32ZM13.2828 14L19.5828 -9.53674e-07H22.1428L28.4628 14H25.7428L20.3228 1.38H21.3628L15.9628 14H13.2828ZM16.1828 10.76L16.8828 8.72H24.4428L25.1428 10.76H16.1828ZM30.2433 14V-9.53674e-07H36.0033C37.2433 -9.53674e-07 38.3033 0.199999 39.1833 0.6C40.0766 0.999999 40.7633 1.57333 41.2433 2.32C41.7233 3.06667 41.9633 3.95333 41.9633 4.98C41.9633 6.00667 41.7233 6.89333 41.2433 7.64C40.7633 8.37333 40.0766 8.94 39.1833 9.34C38.3033 9.72667 37.2433 9.92 36.0033 9.92H31.6833L32.8433 8.74V14H30.2433ZM39.4033 14L35.8633 8.92H38.6433L42.2033 14H39.4033ZM32.8433 9.02L31.6833 7.78H35.8833C37.0299 7.78 37.8899 7.53333 38.4633 7.04C39.0499 6.54667 39.3433 5.86 39.3433 4.98C39.3433 4.08667 39.0499 3.4 38.4633 2.92C37.8899 2.44 37.0299 2.2 35.8833 2.2H31.6833L32.8433 0.919999V9.02ZM44.8722 14V-9.53674e-07H47.4722V14H44.8722ZM59.1063 10.7L58.9663 7.62L66.3063 -9.53674e-07H69.2263L63.1263 6.48L61.6863 8.06L59.1063 10.7ZM56.7863 14V-9.53674e-07H59.3863V14H56.7863ZM66.5463 14L61.1863 7.62L62.9063 5.72L69.5863 14H66.5463ZM68.7711 14L75.0711 -9.53674e-07H77.6311L83.9511 14H81.2311L75.8111 1.38H76.8511L71.4511 14H68.7711ZM71.6711 10.76L72.3711 8.72H79.9311L80.6311 10.76H71.6711ZM85.7316 14V-9.53674e-07H88.3316V14H85.7316ZM91.0583 14V12.26L100.098 1.22L100.398 2.2H91.1983V-9.53674e-07H102.738V1.74L93.6983 12.78L93.3783 11.8H102.998V14H91.0583ZM107.78 5.82H114.74V7.96H107.78V5.82ZM107.98 11.82H115.88V14H105.38V-9.53674e-07H115.6V2.18H107.98V11.82ZM118.778 14V-9.53674e-07H120.918L129.698 10.78H128.638V-9.53674e-07H131.218V14H129.078L120.298 3.22H121.358V14H118.778Z" fill="#0D8FE7"/>
</svg>
