<svg width="159" height="32" viewBox="0 0 159 32" fill="none" xmlns="http://www.w3.org/2000/svg">
<g clip-path="url(#clip0_5584_3179)">
<path d="M11 6.83331V25.1666M17.4818 9.51817L4.51819 22.4818M20.1667 16H1.83333M17.4818 22.4818L4.51819 9.51817" stroke="#0D8FE7" stroke-width="2.5" stroke-linecap="round" stroke-linejoin="round"/>
</g>
<path d="M31.32 23V17.46L31.9 19.06L25.82 9H28.6L33.48 17.1H31.92L36.84 9H39.4L33.32 19.06L33.92 17.46V23H31.32ZM38.2828 23L44.5828 9H47.1428L53.4628 23H50.7428L45.3228 10.38H46.3628L40.9628 23H38.2828ZM41.1828 19.76L41.8828 17.72H49.4428L50.1428 19.76H41.1828ZM55.2433 23V9H61.0033C62.2433 9 63.3033 9.2 64.1833 9.6C65.0766 10 65.7633 10.5733 66.2433 11.32C66.7233 12.0667 66.9633 12.9533 66.9633 13.98C66.9633 15.0067 66.7233 15.8933 66.2433 16.64C65.7633 17.3733 65.0766 17.94 64.1833 18.34C63.3033 18.7267 62.2433 18.92 61.0033 18.92H56.6833L57.8433 17.74V23H55.2433ZM64.4033 23L60.8633 17.92H63.6433L67.2033 23H64.4033ZM57.8433 18.02L56.6833 16.78H60.8833C62.0299 16.78 62.8899 16.5333 63.4633 16.04C64.0499 15.5467 64.3433 14.86 64.3433 13.98C64.3433 13.0867 64.0499 12.4 63.4633 11.92C62.8899 11.44 62.0299 11.2 60.8833 11.2H56.6833L57.8433 9.92V18.02ZM69.8722 23V9H72.4722V23H69.8722ZM84.1063 19.7L83.9663 16.62L91.3063 9H94.2263L88.1263 15.48L86.6863 17.06L84.1063 19.7ZM81.7863 23V9H84.3863V23H81.7863ZM91.5463 23L86.1863 16.62L87.9063 14.72L94.5863 23H91.5463ZM93.7711 23L100.071 9H102.631L108.951 23H106.231L100.811 10.38H101.851L96.4511 23H93.7711ZM96.6711 19.76L97.3711 17.72H104.931L105.631 19.76H96.6711ZM110.732 23V9H113.332V23H110.732ZM116.058 23V21.26L125.098 10.22L125.398 11.2H116.198V9H127.738V10.74L118.698 21.78L118.378 20.8H127.998V23H116.058ZM132.78 14.82H139.74V16.96H132.78V14.82ZM132.98 20.82H140.88V23H130.38V9H140.6V11.18H132.98V20.82ZM143.778 23V9H145.918L154.698 19.78H153.638V9H156.218V23H154.078L145.298 12.22H146.358V23H143.778Z" fill="#0D8FE7"/>
<defs>
<clipPath id="clip0_5584_3179">
<rect width="22" height="22" fill="white" transform="translate(0 5)"/>
</clipPath>
</defs>
</svg>
